<svg width="148" height="152" viewBox="0 0 148 152" fill="none" xmlns="http://www.w3.org/2000/svg">
<path d="M24.5951 107.266C25.317 109.369 29.4348 113.822 31.9336 117.03L33.4266 120.749C33.4266 120.749 34.8262 124.951 37.9352 130.277C41.0441 135.603 47.0391 134.724 51.5654 138.202C60.3436 144.898 61.2405 141.134 61.2242 141.145C75.6814 143.138 76.5395 138.925 76.5127 138.979C86.1874 140.793 86.7644 137.299 86.7511 137.322C98.4414 137.836 98.898 133.799 98.883 133.835C106.186 132.2 106.753 129.087 106.761 129.044H106.761C117.604 124.344 115.317 121.821 115.326 121.858C126.038 111.361 121.337 112.72 121.377 112.753C132.247 102.447 127.096 103.784 127.134 103.819C135.81 93.6811 131.893 94.9573 131.928 94.9799C139.218 85.2601 135.46 86.5072 135.49 86.5232C141.97 77.1912 137.56 79.3865 137.585 79.3971C144.251 68.1514 140.492 70.1752 140.53 70.1889C146.027 59.3452 142.602 61.3724 142.636 61.3817C146.45 53.0917 143.897 54.885 143.917 54.8867C146.209 50.5869 145.465 47.6459 145.469 47.6501C142.968 50.8691 143.843 47.7111 143.856 47.6658V47.6654C147.105 40.2863 144.046 42.0735 144.061 42.0736C147.843 32.6519 144.176 36.6898 144.194 36.6894C146.498 28.7606 144 30.8246 144.017 30.8244C146.452 21.0654 141.586 27.6357 143.092 24.6977C147.183 16.5165 141.387 21.7998 143.094 18.6104C144.776 15.4176 143.316 14.2374 143.317 14.2396C145.121 10.7161 144.23 9.56369 144.377 9.05263C144.525 8.54279 146.166 6.25814 146.167 4.74876C146.17 3.27645 147.548 2.44724 147.611 2.40958L147.613 2.40825C148.381 -0.0112574 147.116 -0.261217 145.685 0.664499C144.254 1.59141 142.457 3.54203 141.948 3.30982C141.441 3.08458 138.99 5.32083 138.002 5.414C137.015 5.51636 134.701 7.3646 134.7 7.36121C132.929 4.53262 130.362 8.16572 130.358 8.15913C129.282 5.79776 124.754 10.3235 124.254 10.3349C123.761 10.3622 124.21 8.89155 124.21 8.89155C122.696 7.80674 122.458 10.764 121.032 9.82924C119.612 8.89972 117.871 11.2739 117.868 11.2718C117.035 7.24371 113.411 13.4993 112.971 12.3238C111.965 9.6266 108.318 12.8137 108.314 12.8034C106.002 9.99747 100.601 18.0095 100.823 15.3133C101.058 12.6495 96.7523 16.0753 96.749 16.0622C96.2679 13.5324 92.3423 18.8194 92.3428 17.7621C92.382 13.575 87.8471 20.2849 86.9732 18.3041C86.1157 16.35 84.0741 21.6668 83.5967 20.8011C82.4736 18.7277 80.1224 23.3726 79.8289 22.0989C79.1096 18.9039 75.1535 26.1337 75.1504 23.737C75.171 19.7647 69.1664 27.5203 67.6447 26.6475C63.9766 24.5777 62.784 30.9422 60.0714 30.0258C57.3905 29.1102 55.7987 34.1555 54.46 33.5033C53.1397 32.8518 52.4587 36.1493 51.0586 36.1978C47.2192 36.32 46.91 42.5813 45.5788 41.2261C42.8773 38.4286 40.478 45.1525 39.8075 45.7055C39.16 46.2586 38.5406 44.1562 37.4227 47.009C36.2915 49.8614 35.6023 49.9862 35.6061 49.9869V49.9859C35.6094 49.9382 35.742 48.0574 33.895 49.8829C27.9362 55.692 30.0055 58.0013 28.0886 57.6853C24.0263 56.9525 24.8316 68.7331 23.919 67.6515C23.0538 66.5537 22.7958 67.1487 22.7958 67.1487C20.4051 75.8703 24.9818 72.988 23.04 79.5359C20.2935 88.3303 25.6115 89.1393 23.642 91.7251C20.4509 95.829 23.7126 101.993 23.7183 101.998C23.5431 102.586 23.6535 104.537 24.5951 107.266Z" fill="#B8D94C"/>
<g opacity="0.58">
<mask id="mask0" mask-type="alpha" maskUnits="userSpaceOnUse" x="22" y="0" width="126" height="143">
<path fill-rule="evenodd" clip-rule="evenodd" d="M24.5951 107.266C25.317 109.369 29.4348 113.822 31.9336 117.03L33.4266 120.749C33.4266 120.749 34.8262 124.951 37.9352 130.277C41.0441 135.603 47.0391 134.724 51.5654 138.202C60.3436 144.898 61.2405 141.134 61.2242 141.145C75.6814 143.138 76.5395 138.925 76.5127 138.979C86.1874 140.793 86.7644 137.299 86.7511 137.322C98.4414 137.836 98.898 133.799 98.883 133.835C106.186 132.2 106.753 129.087 106.761 129.044H106.761C117.604 124.344 115.317 121.821 115.326 121.858C126.038 111.361 121.337 112.72 121.377 112.753C132.247 102.447 127.096 103.784 127.134 103.819C135.81 93.6811 131.893 94.9573 131.928 94.9799C139.218 85.2601 135.46 86.5072 135.49 86.5232C141.97 77.1912 137.56 79.3865 137.585 79.3971C144.251 68.1514 140.492 70.1752 140.53 70.1889C146.027 59.3452 142.602 61.3724 142.636 61.3817C146.45 53.0917 143.897 54.885 143.917 54.8867C146.209 50.5869 145.465 47.6459 145.469 47.6501C142.968 50.8691 143.843 47.7111 143.856 47.6658V47.6654C147.105 40.2863 144.046 42.0735 144.061 42.0736C147.843 32.6519 144.176 36.6898 144.194 36.6894C146.498 28.7606 144 30.8246 144.017 30.8244C146.452 21.0654 141.586 27.6357 143.092 24.6977C147.183 16.5165 141.387 21.7998 143.094 18.6104C144.776 15.4176 143.316 14.2374 143.317 14.2396C145.121 10.7161 144.23 9.56369 144.377 9.05263C144.525 8.54279 146.166 6.25814 146.167 4.74876C146.17 3.27645 147.548 2.44724 147.611 2.40958L147.613 2.40825C148.381 -0.0112574 147.116 -0.261217 145.685 0.664499C144.254 1.59141 142.457 3.54203 141.948 3.30982C141.441 3.08458 138.99 5.32083 138.002 5.414C137.015 5.51636 134.701 7.3646 134.7 7.36121C132.929 4.53262 130.362 8.16572 130.358 8.15913C129.282 5.79776 124.754 10.3235 124.254 10.3349C123.761 10.3622 124.21 8.89155 124.21 8.89155C122.696 7.80674 122.458 10.764 121.032 9.82924C119.612 8.89972 117.871 11.2739 117.868 11.2718C117.035 7.24371 113.411 13.4993 112.971 12.3238C111.965 9.6266 108.318 12.8137 108.314 12.8034C106.002 9.99747 100.601 18.0095 100.823 15.3133C101.058 12.6495 96.7523 16.0753 96.749 16.0622C96.2679 13.5324 92.3423 18.8194 92.3428 17.7621C92.382 13.575 87.8471 20.2849 86.9732 18.3041C86.1157 16.35 84.0741 21.6668 83.5967 20.8011C82.4736 18.7277 80.1224 23.3726 79.8289 22.0989C79.1096 18.9039 75.1535 26.1337 75.1504 23.737C75.171 19.7647 69.1664 27.5203 67.6447 26.6475C63.9766 24.5777 62.784 30.9422 60.0714 30.0258C57.3905 29.1102 55.7987 34.1555 54.46 33.5033C53.1397 32.8518 52.4587 36.1493 51.0586 36.1978C47.2192 36.32 46.91 42.5813 45.5788 41.2261C42.8773 38.4286 40.478 45.1525 39.8075 45.7055C39.16 46.2586 38.5406 44.1562 37.4227 47.009C36.2915 49.8614 35.6023 49.9862 35.6061 49.9869V49.9859C35.6094 49.9382 35.742 48.0574 33.895 49.8829C27.9362 55.692 30.0055 58.0013 28.0886 57.6853C24.0263 56.9525 24.8316 68.7331 23.919 67.6515C23.0538 66.5537 22.7958 67.1487 22.7958 67.1487C20.4051 75.8703 24.9818 72.988 23.04 79.5359C20.2935 88.3303 25.6115 89.1393 23.642 91.7251C20.4509 95.829 23.7126 101.993 23.7183 101.998C23.5431 102.586 23.6535 104.537 24.5951 107.266Z" fill="white"/>
</mask>
<g mask="url(#mask0)">
<g filter="url(#filter0_f)">
<path d="M29.6908 114.032C27.5445 111.45 25.3102 108.763 24.7962 107.266C23.8547 104.537 23.7443 102.586 23.9195 101.998C23.9138 101.993 20.6521 95.829 23.8432 91.725C24.6359 90.6842 24.2481 89.9314 23.6807 88.8299C22.8383 87.1945 21.6001 84.7907 23.2411 79.5359C24.1493 76.4734 23.6316 75.4738 23.0678 74.3849C22.426 73.1458 21.7244 71.7912 22.997 67.1487C22.997 67.1487 23.255 66.5537 24.1202 67.6515C24.4237 68.0112 24.5372 66.9483 24.703 65.3962C25.0355 62.2813 25.5785 57.1962 28.2898 57.6853C29.0862 57.8165 29.1945 57.4947 29.4764 56.6569C29.873 55.4782 30.6132 53.2784 34.0963 49.8829C35.9432 48.0573 35.8106 49.9381 35.8072 49.9859L35.8082 49.9865C35.838 49.9783 36.5207 49.7904 37.6239 47.009C38.3637 45.1211 38.8851 45.4032 39.3409 45.6498C39.5739 45.7758 39.7897 45.8926 40.0087 45.7055C40.1619 45.5792 40.4055 45.1304 40.7223 44.5467C41.7916 42.5764 43.6959 39.0679 45.78 41.2261C46.3399 41.7961 46.7191 41.0187 47.2561 39.9173C47.9959 38.4002 49.0353 36.2687 51.2598 36.1978C51.9155 36.1751 52.4135 35.4396 52.8934 34.7311C53.438 33.9267 53.9593 33.1569 54.6613 33.5033C55.2301 33.7804 55.8446 33.0289 56.5689 32.1431C57.5492 30.9442 58.7308 29.4992 60.2726 30.0256C61.4789 30.4333 62.3846 29.401 63.3411 28.3109C64.5354 26.9497 65.8089 25.4982 67.8459 26.6474C68.4879 27.0157 69.9278 25.8481 71.3765 24.6734C73.3618 23.0637 75.3635 21.4405 75.3515 23.737C75.3529 24.7868 76.1128 23.9895 77.0269 23.0304C78.1995 21.8 79.6258 20.3034 80.03 22.0989C80.1508 22.6229 80.62 22.145 81.2086 21.5453C82.0505 20.6876 83.1369 19.5809 83.7978 20.8011C83.9942 21.1572 84.4553 20.4673 84.9896 19.6676C85.7545 18.5232 86.6696 17.1537 87.1744 18.3041C87.5617 19.1821 88.6685 18.3525 89.7773 17.5214C91.1699 16.4774 92.5658 15.4311 92.544 17.7621C92.5439 18.1576 93.0927 17.6656 93.8053 17.0271C94.9979 15.9582 96.649 14.4785 96.9502 16.0622C96.9504 16.0632 96.9735 16.0459 97.016 16.0139C97.557 15.6081 101.242 12.8436 101.024 15.3133C100.931 16.4477 101.833 15.6867 103.081 14.6332C104.8 13.1827 107.176 11.1779 108.515 12.8034C108.515 12.8039 108.528 12.7935 108.552 12.7739C108.938 12.4596 112.226 9.78497 113.172 12.3238C113.333 12.7531 113.918 12.1914 114.637 11.5013C115.887 10.3018 117.54 8.71476 118.069 11.2718C118.069 11.2718 118.073 11.2676 118.079 11.2594C118.221 11.0761 119.874 8.93962 121.233 9.82923C121.929 10.2857 122.342 9.81401 122.759 9.33818C123.196 8.83962 123.636 8.3365 124.411 8.89155C124.411 8.89155 123.962 10.3622 124.455 10.3349C124.582 10.332 124.969 10.0376 125.494 9.63872C127.034 8.46808 129.756 6.39783 130.559 8.15912C130.559 8.15912 130.565 8.15155 130.577 8.13657C130.805 7.83556 133.215 4.66679 134.902 7.36119C134.902 7.36119 134.916 7.35039 134.943 7.3297C135.257 7.08598 137.294 5.50835 138.203 5.414C138.699 5.36723 139.564 4.78047 140.366 4.23611C141.162 3.69601 141.897 3.19764 142.149 3.30982C142.457 3.45032 143.236 2.7917 144.121 2.04422C144.698 1.55633 145.321 1.03057 145.886 0.664498C146.48 0.280559 147.045 0.09886 147.449 0.190291L141.625 8.60959L137.008 15.4956L131.387 23.5967L124.761 33.5206L116.931 44.4572L114.522 46.8875L108.901 51.7482L102.075 59.6468L92.6386 69.3682L83.4034 78.6845L68.1453 91.6464L54.694 102.785L33.8144 119.797C33.738 120.04 33.6552 120.31 33.5677 120.6L32.1348 117.03C31.4146 116.105 30.5599 115.077 29.6908 114.032Z" fill="#B8D94C"/>
</g>
<g filter="url(#filter1_f)">
<path d="M29.6908 114.032C27.5445 111.45 25.3102 108.763 24.7962 107.266C23.8547 104.537 23.7443 102.586 23.9195 101.998C23.9138 101.993 20.6521 95.829 23.8432 91.725C24.6359 90.6842 24.2481 89.9314 23.6807 88.8299C22.8383 87.1945 21.6001 84.7907 23.2411 79.5359C24.1493 76.4734 23.6316 75.4738 23.0678 74.3849C22.426 73.1458 21.7244 71.7912 22.997 67.1487C22.997 67.1487 23.255 66.5537 24.1202 67.6515C24.4237 68.0112 24.5372 66.9483 24.703 65.3962C25.0355 62.2813 25.5785 57.1962 28.2898 57.6853C29.0862 57.8165 29.1945 57.4947 29.4764 56.6569C29.873 55.4782 30.6132 53.2784 34.0963 49.8829C35.9432 48.0573 35.8106 49.9381 35.8072 49.9859L35.8082 49.9865C35.838 49.9783 36.5207 49.7904 37.6239 47.009C38.3637 45.1211 38.8851 45.4032 39.3409 45.6498C39.5739 45.7758 39.7897 45.8926 40.0087 45.7055C40.1619 45.5792 40.4055 45.1304 40.7223 44.5467C41.7916 42.5764 43.6959 39.0679 45.78 41.2261C46.3399 41.7961 46.7191 41.0187 47.2561 39.9173C47.9959 38.4002 49.0353 36.2687 51.2598 36.1978C51.9155 36.1751 52.4135 35.4396 52.8934 34.7311C53.438 33.9267 53.9593 33.1569 54.6613 33.5033C55.2301 33.7804 55.8446 33.0289 56.5689 32.1431C57.5492 30.9442 58.7308 29.4992 60.2726 30.0256C61.4789 30.4333 62.3846 29.401 63.3411 28.3109C64.5354 26.9497 65.8089 25.4982 67.8459 26.6474C68.4879 27.0157 69.9278 25.8481 71.3765 24.6734C73.3618 23.0637 75.3635 21.4405 75.3515 23.737C75.3529 24.7868 76.1128 23.9895 77.0269 23.0304C78.1995 21.8 79.6258 20.3034 80.03 22.0989C80.1508 22.6229 80.62 22.145 81.2086 21.5453C82.0505 20.6876 83.1369 19.5809 83.7978 20.8011C83.9942 21.1572 84.4553 20.4673 84.9896 19.6676C85.7545 18.5232 86.6696 17.1537 87.1744 18.3041C87.5617 19.1821 88.6685 18.3525 89.7773 17.5214C91.1699 16.4774 92.5658 15.4311 92.544 17.7621C92.5439 18.1576 93.0927 17.6656 93.8053 17.0271C94.9979 15.9582 96.649 14.4785 96.9502 16.0622C96.9504 16.0632 96.9735 16.0459 97.016 16.0139C97.557 15.6081 101.242 12.8436 101.024 15.3133C100.931 16.4477 101.833 15.6867 103.081 14.6332C104.8 13.1827 107.176 11.1779 108.515 12.8034C108.515 12.8039 108.528 12.7935 108.552 12.7739C108.938 12.4596 112.226 9.78497 113.172 12.3238C113.333 12.7531 113.918 12.1914 114.637 11.5013C115.887 10.3018 117.54 8.71476 118.069 11.2718C118.069 11.2718 118.073 11.2676 118.079 11.2594C118.221 11.0761 119.874 8.93962 121.233 9.82923C121.929 10.2857 122.342 9.81401 122.759 9.33818C123.196 8.83962 123.636 8.3365 124.411 8.89155C124.411 8.89155 123.962 10.3622 124.455 10.3349C124.582 10.332 124.969 10.0376 125.494 9.63872C127.034 8.46808 129.756 6.39783 130.559 8.15912C130.559 8.15912 130.565 8.15155 130.577 8.13657C130.805 7.83556 133.215 4.66679 134.902 7.36119C134.902 7.36119 134.916 7.35039 134.943 7.3297C135.257 7.08598 137.294 5.50835 138.203 5.414C138.699 5.36723 139.564 4.78047 140.366 4.23611C141.162 3.69601 141.897 3.19764 142.149 3.30982C142.457 3.45032 143.236 2.7917 144.121 2.04422C144.698 1.55633 145.321 1.03057 145.886 0.664498C146.48 0.280559 147.045 0.09886 147.449 0.190291L141.625 8.60959L137.008 15.4956L131.387 23.5967L124.761 33.5206L116.931 44.4572L114.522 46.8875L108.901 51.7482L102.075 59.6468L92.6386 69.3682L83.4034 78.6845L68.1453 91.6464L54.694 102.785L33.8144 119.797C33.738 120.04 33.6552 120.31 33.5677 120.6L32.1348 117.03C31.4146 116.105 30.5599 115.077 29.6908 114.032Z" fill="url(#paint0_linear)"/>
</g>
</g>
</g>
<g filter="url(#filter2_i)">
<path d="M24.5951 107.266C25.317 109.369 29.4348 113.822 31.9336 117.03L33.4266 120.749C33.4266 120.749 34.8262 124.951 37.9352 130.277C41.0441 135.603 47.0391 134.724 51.5654 138.202C60.3436 144.898 61.2405 141.134 61.2242 141.145C75.6814 143.138 76.5395 138.925 76.5127 138.979C86.1874 140.793 86.7644 137.299 86.7511 137.322C98.4414 137.836 98.898 133.799 98.883 133.835C106.186 132.2 106.753 129.087 106.761 129.044C117.604 124.344 115.317 121.821 115.326 121.858C126.038 111.361 121.337 112.72 121.377 112.753C132.247 102.447 127.096 103.784 127.134 103.819C135.81 93.6811 131.893 94.9573 131.928 94.9799C139.218 85.26 135.46 86.5072 135.49 86.5232C141.97 77.1912 137.56 79.3865 137.585 79.3971C144.251 68.1513 140.492 70.1752 140.53 70.1889C146.027 59.3452 142.602 61.3724 142.636 61.3817C146.45 53.0917 143.897 54.885 143.917 54.8867C146.209 50.5869 145.465 47.6459 145.469 47.6501C142.968 50.8691 143.843 47.7106 143.856 47.6654C147.105 40.2863 144.046 42.0735 144.061 42.0736C147.843 32.6519 144.176 36.6898 144.194 36.6894C146.498 28.7606 144 30.8246 144.017 30.8244C146.452 21.0653 141.586 27.6357 143.092 24.6977C147.183 16.5165 141.387 21.7998 143.094 18.6104C144.776 15.4176 143.316 14.2374 143.317 14.2396C145.121 10.7161 144.23 9.56369 144.377 9.05263C144.525 8.54279 146.166 6.25814 146.167 4.74876C146.17 3.27645 147.548 2.44724 147.611 2.40958L147.613 2.40825C148.381 -0.0112574 147.116 -0.261217 145.685 0.664499C144.254 1.59141 142.457 3.54203 141.948 3.30982C141.441 3.08458 138.99 5.32083 138.002 5.414C137.015 5.51636 134.701 7.3646 134.7 7.36121C132.929 4.53262 130.362 8.16572 130.358 8.15913C129.282 5.79776 124.754 10.3235 124.254 10.3349C123.761 10.3622 124.21 8.89155 124.21 8.89155C122.696 7.80674 122.458 10.764 121.032 9.82924C119.612 8.89973 117.871 11.2739 117.868 11.2718C117.035 7.24371 113.411 13.4993 112.971 12.3238C111.965 9.6266 108.318 12.8137 108.314 12.8034C106.002 9.99747 100.601 18.0095 100.823 15.3133C101.058 12.6495 96.7523 16.0753 96.749 16.0622C96.2679 13.5324 92.3423 18.8194 92.3428 17.7621C92.382 13.575 87.8471 20.2849 86.9732 18.3041C86.1157 16.35 84.0741 21.6668 83.5967 20.8011C82.4736 18.7277 80.1224 23.3726 79.8289 22.0989C79.1096 18.9039 75.1535 26.1337 75.1504 23.737C75.171 19.7647 69.1664 27.5203 67.6447 26.6475C63.9766 24.5777 62.784 30.9422 60.0714 30.0258C57.3905 29.1102 55.7987 34.1555 54.46 33.5033C53.1397 32.8518 52.4587 36.1493 51.0586 36.1978C47.2192 36.32 46.91 42.5813 45.5788 41.2261C42.8773 38.4286 40.478 45.1525 39.8075 45.7055C39.16 46.2586 38.5406 44.1562 37.4227 47.009C36.2915 49.8614 35.6024 49.9853 35.6061 49.9859C35.6094 49.9382 35.742 48.0574 33.895 49.8829C27.9362 55.692 30.0055 58.0013 28.0886 57.6853C24.0263 56.9525 24.8316 68.7331 23.919 67.6515C23.0538 66.5537 22.7958 67.1487 22.7958 67.1487C20.4051 75.8703 24.9818 72.9881 23.04 79.5359C20.2935 88.3303 25.6115 89.1393 23.642 91.7251C20.4509 95.829 23.7126 101.993 23.7183 101.998C23.5431 102.586 23.6535 104.537 24.5951 107.266Z" fill="#95BB3B" fill-opacity="0.01"/>
</g>
<path d="M0.952545 148.529C-1.491 146.647 1.7526 141.695 1.7526 141.695C1.7526 141.695 7.96396 133.47 13.1018 129.419C20.1359 123.872 25.4424 120.056 31.5518 116.101C31.1986 112.595 32.721 107.488 33.6741 102.368C33.8008 101.687 24.5697 82.7483 24.7156 82.0455C24.8058 81.6105 34.2672 99.4174 34.3645 98.9745C35.2376 94.9989 36.3884 90.7147 37.7349 86.2584C37.8591 85.8477 31.4243 60.7733 31.5518 60.3597C31.7303 59.78 38.4726 83.8596 38.6573 83.2749C40.5111 77.4049 42.6639 71.2965 44.9374 65.2476C45.129 64.7378 41.8758 49.4235 42.069 48.9149C42.2619 48.407 45.9011 62.7047 46.0954 62.1981C55.6564 37.2695 56.7932 36.17 56.7932 36.17C43.1166 72.688 34.7996 93.8258 35.7587 112.946L56.7931 98.9745C55.7787 85.576 61.2534 69.12 67.2228 55.6269C67.5632 54.8574 67.9052 33.063 68.2477 32.3139C68.461 31.8474 68.888 51.9616 68.888 51.9616C74.1891 40.5552 77.6608 34.3451 84.138 23.3743C84.138 23.3743 59.4373 68.1172 59.1617 97.1534C68.1526 90.124 74.1466 86.4777 83.6331 78.5897C83.5512 67.1886 90.5923 49.4518 96.5449 36.5208C96.708 36.1666 96.8702 18.9883 97.0315 18.6415C97.2805 18.1062 97.527 34.4077 97.7706 33.8915C101.57 25.8416 104.647 20.2191 104.647 20.2191C104.647 20.2191 85.7798 59.1825 85.7834 76.1673C90.7717 70.8282 104.052 55.5907 108.327 50.7191C107.322 34.5221 122.526 12.3311 122.526 12.3311C122.526 12.3311 107.849 39.2341 109.867 49.1415C121.444 35.8158 126.133 29.1454 139.879 11.4545L111.357 50.1719C125.514 49.0751 144.119 29.268 144.086 28.6329C144.086 28.6329 138.222 36.5475 132.955 40.7277C132.639 40.9787 143.561 39.3814 143.561 39.3814C143.561 39.3814 131.284 42.0313 130.922 42.3053C124.376 47.2654 116.16 52.3205 109.867 52.3205C106.342 56.6513 89.6437 75.0607 85.9525 79.2907C107.715 78.0011 141.982 55.627 141.982 55.627C141.982 55.627 133.884 61.3135 124.63 66.495C124.282 66.6891 140.931 68.905 140.931 68.905C140.931 68.905 123.406 67.3526 123.051 67.5467C110.927 74.1942 95.975 80.5171 83.6331 81.9252C82.7076 82.9669 67.8869 92.8539 61 98.9745C89.3966 101.377 136.724 76.5864 136.724 76.5864C124.407 83.2982 117.337 86.9873 102.874 92.7311L124.629 94.5408L100.44 93.7828C84.1568 99.0075 74.9213 100.294 58.3708 101.377L37.735 115.475C74.7642 117.233 125.156 103.831 125.156 103.831C125.156 103.831 111.26 108.436 89.5386 113.424C89.1355 113.517 115.5 121.259 115.5 121.259L86.2415 114.348C86.2415 114.348 73.2698 116.067 63.6293 117.504C63.1936 117.569 86.2415 134.331 86.2415 134.331L60.4742 118.029C60.4742 118.029 49.4311 118.624 44.1725 118.624L61.5259 136.96L41.5432 118.73C41.5432 118.73 35.1573 118.599 34.3645 118.73C30.1576 119.431 21.5447 128.454 16.7719 133.107C7.51179 142.135 6.29306 148.167 6.29306 148.167C6.29306 148.167 3.39606 150.411 0.952545 148.529Z" fill="url(#paint1_radial)"/>
<defs>
<filter id="filter0_f" x="-4.89571" y="-27.0158" width="179.527" height="174.799" filterUnits="userSpaceOnUse" color-interpolation-filters="sRGB">
<feFlood flood-opacity="0" result="BackgroundImageFix"/>
<feBlend mode="normal" in="SourceGraphic" in2="BackgroundImageFix" result="shape"/>
<feGaussianBlur stdDeviation="13.5914" result="effect1_foregroundBlur"/>
</filter>
<filter id="filter1_f" x="-4.89571" y="-27.0158" width="179.527" height="174.799" filterUnits="userSpaceOnUse" color-interpolation-filters="sRGB">
<feFlood flood-opacity="0" result="BackgroundImageFix"/>
<feBlend mode="normal" in="SourceGraphic" in2="BackgroundImageFix" result="shape"/>
<feGaussianBlur stdDeviation="13.5914" result="effect1_foregroundBlur"/>
</filter>
<filter id="filter2_i" x="22.0859" y="0.166992" width="125.76" height="142.022" filterUnits="userSpaceOnUse" color-interpolation-filters="sRGB">
<feFlood flood-opacity="0" result="BackgroundImageFix"/>
<feBlend mode="normal" in="SourceGraphic" in2="BackgroundImageFix" result="shape"/>
<feColorMatrix in="SourceAlpha" type="matrix" values="0 0 0 0 0 0 0 0 0 0 0 0 0 0 0 0 0 0 127 0" result="hardAlpha"/>
<feOffset/>
<feGaussianBlur stdDeviation="2.5"/>
<feComposite in2="hardAlpha" operator="arithmetic" k2="-1" k3="1"/>
<feColorMatrix type="matrix" values="0 0 0 0 0.207843 0 0 0 0 0.396078 0 0 0 0 0.027451 0 0 0 0.5 0"/>
<feBlend mode="normal" in2="shape" result="effect1_innerShadow"/>
</filter>
<linearGradient id="paint0_linear" x1="80.7362" y1="80.6051" x2="55.4011" y2="37.1453" gradientUnits="userSpaceOnUse">
<stop stop-color="#356507" stop-opacity="0.8"/>
<stop offset="1" stop-color="white" stop-opacity="0.01"/>
</linearGradient>
<radialGradient id="paint1_radial" cx="0" cy="0" r="1" gradientUnits="userSpaceOnUse" gradientTransform="translate(3.68141 144.322) rotate(-43.186) scale(181.748 181.667)">
<stop offset="0.0235258" stop-color="#739E2A"/>
<stop offset="0.23272" stop-color="#739E2A"/>
<stop offset="0.981614" stop-color="#739E2A" stop-opacity="0.01"/>
</radialGradient>
</defs>
</svg>
