<?xml version="1.0" encoding="UTF-8"?>
<svg width="24px" height="24px" viewBox="0 0 24 24" version="1.1" xmlns="http://www.w3.org/2000/svg" xmlns:xlink="http://www.w3.org/1999/xlink">
    <!-- Generator: sketchtool 55.2 (78181) - https://sketchapp.com -->
    <title>51DA6861-F40E-4867-B4F0-FFB88629BB3D@1.50x</title>
    <desc>Created with sketchtool.</desc>
    <g id="Icons" stroke="none" stroke-width="1" fill="none" fill-rule="evenodd">
        <g transform="translate(-270.000000, -585.000000)" fill="#fff" id="Icon">
            <g transform="translate(242.000000, 585.000000)">
                <g id="Icon-/-Label-/-Brand" transform="translate(28.000000, 0.000000)">
                    <path d="M12.6644668,12.6330927 C12.6137998,12.6831408 10.8997537,15.0243185 6.77658521,14.3656712 C3.46033575,13.8361555 2.10058339,12.0137962 2,11.9366229 C2.02627178,11.7062492 4.78968789,9.4911467 7.68446292,9.57481477 C10.5792379,9.65886488 12.7785614,11.3807461 12.7785614,11.3807461 C12.8003294,11.4013765 14.6010724,11.44684 14.6010724,11.44684 C13.1212205,10.9681364 11.2251485,10.0458774 10.4114738,8.19983133 C9.67323678,6.52646999 9.77869922,5.52283523 9.49984302,4.08099375 C9.49984302,4.08099375 12.819095,3.81203338 15.3820949,5.48883314 C17.7349206,7.02809634 19.0702778,11.2252533 19.0957989,11.355531 C19.2204022,11.355531 20.5373691,11.3807461 20.5373691,11.3807461 L20.1973372,4 L21.9898233,4.02941754 C21.6644285,5.94614216 22.0675127,19.650131 21.9898233,19.6657949 C21.7935356,19.7059097 20.3027996,19.7895778 20.1361615,19.458344 C20.1361615,19.458344 20.5039664,12.975788 20.5294876,12.8478026 C20.5294876,12.8478026 19.2023873,12.7198172 19.1025545,12.7198172 C19.1025545,12.7969905 18.9550572,16.4592831 16.1357197,18.4856549 C13.3163823,20.5124088 9.22473994,19.9190914 9.22473994,19.9190914 C9.22473994,19.5821269 9.23975239,18.3060933 10.6554261,16.0802935 C12.2974125,13.499573 14.9572427,12.6583078 14.9088275,12.6583078 C14.9088275,12.6583078 12.7406549,12.6330927 12.6644668,12.6330927 M5.33951875,11.6221991 C5.37855111,11.6443578 6.40352591,13.1064477 8.32436845,13.3177191 C10.4219826,13.5484749 11.1500862,12.4661387 11.2075088,12.44398 C11.1894939,12.294218 9.49946771,10.4141698 7.62291188,10.4298336 C6.32395994,10.4405309 5.33951875,11.6221991 5.33951875,11.6221991 M17.2732943,12.8382514 C16.7913884,12.859646 14.7973601,13.0781763 13.4833957,14.7423685 C12.0823592,16.51659 11.8046289,18.2144023 11.8046289,18.2770578 C11.9716424,18.320229 14.8904373,18.6377092 16.1237098,16.7721788 C17.2898016,15.0078905 17.2732943,13.1366293 17.2732943,12.8382514 M15.4308854,6.99180198 C13.8478229,5.24661599 12.0741023,5.60955966 12.0741023,5.60955966 C12.0741023,5.60955966 12.2962865,8.65140966 13.9773052,10.2514182 C15.0949819,11.3142701 17.4023949,11.005959 17.4023949,11.005959 C17.4023949,11.005959 16.9486437,8.66478127 15.4308854,6.99180198" id="🎨-Color"></path>
                </g>
            </g>
        </g>
    </g>
</svg>